<?xml version="1.0" encoding="UTF-8"?>
<svg id="Layer_1" xmlns="http://www.w3.org/2000/svg" version="1.1" xmlns:xlink="http://www.w3.org/1999/xlink" viewBox="0 0 221.43 266.09">
  <!-- Generator: Adobe Illustrator 29.8.2, SVG Export Plug-In . SVG Version: 2.1.1 Build 3)  -->
  <defs>
    <style>
      .st0 {
        fill: url(#radial-gradient1);
      }

      .st0, .st1, .st2, .st3, .st4, .st5, .st6, .st7, .st8, .st9, .st10, .st11, .st12, .st13, .st14, .st15, .st16, .st17, .st18, .st19, .st20, .st21, .st22, .st23 {
        stroke-miterlimit: 10;
      }

      .st0, .st1, .st2, .st3, .st4, .st5, .st6, .st7, .st8, .st9, .st10, .st11, .st12, .st13, .st14, .st15, .st16, .st17, .st18, .st19, .st20, .st22 {
        stroke: #fbb040;
        stroke-width: .25px;
      }

      .st1 {
        fill: url(#radial-gradient13);
      }

      .st2 {
        fill: url(#radial-gradient2);
      }

      .st3 {
        fill: url(#radial-gradient17);
      }

      .st4 {
        fill: url(#radial-gradient16);
      }

      .st5 {
        fill: url(#radial-gradient9);
      }

      .st24, .st21 {
        fill: #dd8bbb;
      }

      .st6 {
        fill: url(#radial-gradient4);
      }

      .st7 {
        fill: url(#radial-gradient3);
      }

      .st8 {
        fill: url(#radial-gradient10);
      }

      .st9 {
        fill: url(#radial-gradient6);
      }

      .st10 {
        fill: url(#radial-gradient19);
      }

      .st11 {
        fill: url(#radial-gradient11);
      }

      .st12 {
        fill: url(#radial-gradient8);
      }

      .st13 {
        fill: #fef7dd;
      }

      .st14 {
        fill: url(#radial-gradient7);
      }

      .st15 {
        fill: url(#radial-gradient12);
      }

      .st25 {
        fill: #939598;
      }

      .st16 {
        fill: url(#radial-gradient20);
      }

      .st17 {
        fill: url(#radial-gradient5);
      }

      .st18 {
        fill: url(#radial-gradient18);
      }

      .st19 {
        fill: url(#radial-gradient);
      }

      .st20 {
        fill: url(#radial-gradient15);
      }

      .st21 {
        stroke: #dd8bbb;
      }

      .st26 {
        fill: #636464;
      }

      .st22 {
        fill: url(#radial-gradient14);
      }

      .st23 {
        fill: #ffe8ad;
        stroke: #ffe8ad;
      }
    </style>
    <radialGradient id="radial-gradient" cx="173.98" cy="15.86" fx="173.98" fy="15.86" r="4.64" gradientUnits="userSpaceOnUse">
      <stop offset=".1" stop-color="#f5e530"/>
      <stop offset=".22" stop-color="#f3e12f"/>
      <stop offset=".33" stop-color="#eed62f"/>
      <stop offset=".43" stop-color="#e7c52e"/>
      <stop offset=".52" stop-color="#dcac2d"/>
      <stop offset=".61" stop-color="#cd8b2c"/>
      <stop offset=".71" stop-color="#bc642a"/>
      <stop offset=".79" stop-color="#a83628"/>
      <stop offset=".84" stop-color="#9d1c27"/>
    </radialGradient>
    <radialGradient id="radial-gradient1" cx="163.54" cy="11.46" fx="163.54" fy="11.46" r="4.64" xlink:href="#radial-gradient"/>
    <radialGradient id="radial-gradient2" cx="99.58" cy="4.4" fx="99.58" fy="4.4" r="4.64" xlink:href="#radial-gradient"/>
    <radialGradient id="radial-gradient3" cx="113.6" cy="5.1" fx="113.6" fy="5.1" r="4.64" xlink:href="#radial-gradient"/>
    <radialGradient id="radial-gradient4" cx="127.76" cy="5.1" fx="127.76" fy="5.1" r="4.64" xlink:href="#radial-gradient"/>
    <radialGradient id="radial-gradient5" cx="139.25" cy="7.06" fx="139.25" fy="7.06" xlink:href="#radial-gradient"/>
    <radialGradient id="radial-gradient6" cx="151.95" cy="9.5" fx="151.95" fy="9.5" r="4.64" xlink:href="#radial-gradient"/>
    <radialGradient id="radial-gradient7" cx="85.55" cy="4.4" fx="85.55" fy="4.4" r="4.64" xlink:href="#radial-gradient"/>
    <radialGradient id="radial-gradient8" cx="71.52" cy="7.61" fx="71.52" fy="7.61" r="4.64" xlink:href="#radial-gradient"/>
    <radialGradient id="radial-gradient9" cx="57.3" cy="9.38" fx="57.3" fy="9.38" r="4.64" xlink:href="#radial-gradient"/>
    <radialGradient id="radial-gradient10" cx="46.39" cy="14.61" fx="46.39" fy="14.61" r="4.64" xlink:href="#radial-gradient"/>
    <radialGradient id="radial-gradient11" cx="124.02" cy="24.04" fx="124.02" fy="24.04" r="4.64" xlink:href="#radial-gradient"/>
    <radialGradient id="radial-gradient12" cx="54.09" cy="19.64" fx="54.09" fy="19.64" r="4.64" xlink:href="#radial-gradient"/>
    <radialGradient id="radial-gradient13" cx="160.32" cy="21.93" fx="160.32" fy="21.93" r="4.64" xlink:href="#radial-gradient"/>
    <radialGradient id="radial-gradient14" cx="146.28" cy="23.3" fx="146.28" fy="23.3" r="4.64" xlink:href="#radial-gradient"/>
    <radialGradient id="radial-gradient15" cx="135.46" cy="23.4" fx="135.46" fy="23.4" r="4.64" xlink:href="#radial-gradient"/>
    <radialGradient id="radial-gradient16" cx="99.98" cy="24.59" fx="99.98" fy="24.59" r="4.64" xlink:href="#radial-gradient"/>
    <radialGradient id="radial-gradient17" cx="111.19" cy="24.59" fx="111.19" fy="24.59" r="4.64" xlink:href="#radial-gradient"/>
    <radialGradient id="radial-gradient18" cx="88.77" cy="24.04" fx="88.77" fy="24.04" r="4.64" xlink:href="#radial-gradient"/>
    <radialGradient id="radial-gradient19" cx="76.44" cy="24.59" fx="76.44" fy="24.59" r="4.64" xlink:href="#radial-gradient"/>
    <radialGradient id="radial-gradient20" cx="64.41" cy="22.63" fx="64.41" fy="22.63" r="4.64" xlink:href="#radial-gradient"/>
  </defs>
  <g>
    <line class="st26" x1="109.55" y1="177.71" x2="109.55" y2="246.76"/>
    <path class="st26" d="M102.05,177.71v69.05c0,9.65,15,9.67,15,0v-69.05c0-9.65-15-9.67-15,0h0Z"/>
  </g>
  <ellipse class="st26" cx="109.55" cy="249.9" rx="83.81" ry="16.19"/>
  <path class="st25" d="M221.43,180.09c0,8.94-61.05,16.19-107.33,16.19S0,189.03,0,180.09s67.81-16.19,114.1-16.19,107.33,7.25,107.33,16.19Z"/>
  <g id="spodna_vrstva">
    <path class="st23" d="M16.19,103.9v73.81s21.9,11.45,93.36,11.43c88.58-.03,96.64-11.43,96.64-11.43v-73.81s-19.99,15.13-98.57,16.67c-72.86,1.43-91.43-16.67-91.43-16.67Z"/>
    <path class="st24" d="M22.53,116.71c1.14,5.14-1.4,10.47-1.46,15.89-.07,6.86,4.68,12.85,9.14,11.53.27-5.05.55-10.1.82-15.15.08-1.41.19-2.96.88-3.94,1.06-1.51,2.77-.79,4.13.02,1.17.7,2.33,1.4,3.5,2.1,1.32.79,2.75,1.74,3.35,3.68.84,2.73-.37,5.79-.93,8.69-.89,4.64.12,10.08,2.65,13.05s6.44,3.03,8.86-.13c2.42-3.16,2.89-9.31.84-13.02,2.28-4.62,7.98-3.28,9.22,2.16.47,2.08.36,4.34.57,6.52.5,5.13,2.99,9.71,6.23,11.45s7.08.57,9.62-2.93c.52-.72,1-1.56,1.21-2.57.99-4.81-4.41-8.59-3.54-13.45.48-2.67,2.54-3.71,4.18-4.96s3.21-4.34,2.08-6.51c3.64-.03,6.26,5.77,6.57,11.24s-.95,10.84-1.53,16.27c-.69,6.5-.37,13.24.91,19.53,1.26.46,2.53.92,3.79,1.37,1.7-3.61-.47-8.6-.04-12.99.62-6.29,6.36-9.83,6.08-16.17-.11-2.51-1.22-4.92-.83-7.37.56-3.52,3.58-4.35,5.97-4.38,5.76-.08,11.53.34,17.26,1.23.51.08,1.03.17,1.46.6.54.55.81,1.53,1,2.47,1.2,5.84.74,12.41-1.24,17.74-.6,1.61-1.34,3.14-1.66,4.93-.68,3.83,1.08,8.24,3.64,9.12s5.41-1.93,5.9-5.82c.67-5.34-2.57-10.63-1.63-15.87.62-3.46,2.85-5.61,4.94-7.29,3.48-2.79,7.09-5.21,10.79-7.22,1.31,5.3,6.68,6.19,7.96,11.51,1.16,4.82-1.45,11.68,1.35,14.59,5.04,3.03,11.38-4.07,10.93-12.23-.23-4.24-1.94-8.24-1.56-12.45.45-5.11,3.7-8.42,6.64-11.05,1.27-1.14,2.6-2.3,4.07-2.48,1.9-.22,3.68,1.23,5.34,2.64,2.29,1.95,4.75,4.16,5.73,7.85.49,1.84.57,3.92,1.23,5.63,1.08,2.79,3.75,3.83,5.59,2.18s2.5-5.7,1.39-8.46c-.47-1.16-1.17-2.05-1.66-3.18-1.41-3.27-.64-7.86,1.07-10.78s4.17-4.56,6.54-6.12c.99,8.19,3.97,16.25,6.93,23.27.54-11.7.05-21.92-.08-34.67-11.75,7.2-18.44,18.23-95.54,17.79-88.17-.49-95.52-20.9-93.53-19.37,25.12,19.34-2.11-2.19-2.06,2.09.08,5.6,5.73,7.99,6.93,13.42Z"/>
    <ellipse class="st21" cx="111.19" cy="104.58" rx="95" ry="15.98"/>
  </g>
  <g id="vrchna_vrstva">
    <path class="st23" d="M32.6,42.41v63.5s18.12,9.85,77.23,9.83c73.28-.03,79.95-9.83,79.95-9.83v-63.5s-16.54,13.01-81.54,14.34c-60.27,1.23-75.63-14.34-75.63-14.34Z"/>
    <path class="st24" d="M37.36,52.53c.94,2.82-1.16,5.75-1.21,8.72-.06,3.77,3.88,7.06,7.58,6.33.23-2.77.46-5.55.68-8.32.06-.78.16-1.63.73-2.16.88-.83,2.3-.43,3.42.01.97.38,1.94.77,2.9,1.15,1.09.43,2.28.96,2.78,2.02.7,1.5-.31,3.18-.77,4.77-.74,2.55.1,5.54,2.2,7.17s5.34,1.66,7.35-.07,2.4-5.11.7-7.15c1.89-2.54,6.61-1.8,7.64,1.19.39,1.14.3,2.39.48,3.58.42,2.82,2.48,5.33,5.17,6.29s5.87.31,7.98-1.61c.43-.39.83-.85,1-1.41.82-2.64-3.66-4.72-2.93-7.39.4-1.47,2.11-2.04,3.47-2.72s2.66-2.38,1.72-3.58c3.02-.02,5.19,3.17,5.45,6.18s-.79,5.96-1.27,8.94c-.57,3.57-.31,7.27.75,10.72,1.05.25,2.1.5,3.14.75,1.41-1.98-.39-4.72-.03-7.13.51-3.45,5.28-5.4,5.05-8.88-.09-1.38-1.01-2.7-.69-4.05.46-1.93,2.97-2.39,4.95-2.41,4.78-.04,9.56.18,14.32.68.42.04.86.1,1.21.33.45.3.67.84.83,1.36,1,3.21.62,6.82-1.03,9.74-.5.89-1.11,1.73-1.38,2.71-.56,2.1.9,4.52,3.02,5.01s4.49-1.06,4.9-3.2c.56-2.93-2.13-5.83-1.35-8.71.51-1.9,2.36-3.08,4.1-4,2.89-1.53,5.88-2.86,8.95-3.97,1.09,2.91,5.54,3.4,6.6,6.32.96,2.64-1.2,6.42,1.12,8.01,4.18,1.66,9.44-2.24,9.07-6.72-.19-2.33-1.61-4.52-1.3-6.84.37-2.81,3.07-4.62,5.5-6.07,1.05-.62,2.15-1.27,3.37-1.36,1.57-.12,3.05.68,4.43,1.45,1.9,1.07,3.94,2.29,4.75,4.31.4,1.01.47,2.15,1.02,3.09.89,1.53,3.11,2.11,4.64,1.2s2.08-3.13,1.15-4.65c-.39-.63-.97-1.13-1.38-1.75-1.17-1.8-.53-4.32.89-5.92s3.46-2.5,5.43-3.36c.82,4.5,2.91,8.93,5.37,12.78-.58-6.8-.43-13.41,0-20.22-9.74,3.96-15.48,12.74-79.42,12.51-73.12-.27-75.61-11.22-77.07-12.19s-1.75-1.2-1.7,1.15c.06,3.08,4.75,4.39,5.75,7.37Z"/>
    <ellipse class="st21" cx="110.71" cy="42.92" rx="78.59" ry="13.49"/>
  </g>
  <g id="svieÄky">
    <g>
      <path class="st13" d="M173.98,20.26h0c1.78,0,3.22,1.44,3.22,3.22v22.24c0,.44-.36.8-.8.8h-4.83c-.44,0-.8-.36-.8-.8v-22.24c0-1.78,1.44-3.22,3.22-3.22Z"/>
      <path class="st19" d="M174.24,11.46s-1.63,2.78-2.05,3.9c-.21.54-1.33,1.75-.7,3.27.24.58,1.62,1.6,2.25,1.62s1.78-.62,2.13-1.11c.38-.54.92-1.86.79-2.51s-1.09-1.6-1.46-2.13c-.96-1.4-.96-3.05-.96-3.05Z"/>
    </g>
    <g>
      <path class="st13" d="M163.54,15.86h0c1.78,0,3.22,1.44,3.22,3.22v22.24c0,.44-.36.8-.8.8h-4.83c-.44,0-.8-.36-.8-.8v-22.24c0-1.78,1.44-3.22,3.22-3.22Z"/>
      <path class="st0" d="M163.79,7.06s-1.63,2.78-2.05,3.9c-.21.54-1.33,1.75-.7,3.27.24.58,1.62,1.6,2.25,1.62s1.78-.62,2.13-1.11c.38-.54.92-1.86.79-2.51s-1.09-1.6-1.46-2.13c-.96-1.4-.96-3.05-.96-3.05Z"/>
    </g>
    <g>
      <path class="st13" d="M99.58,8.79h0c1.78,0,3.22,1.44,3.22,3.22v22.24c0,.44-.36.8-.8.8h-4.83c-.44,0-.8-.36-.8-.8V12.01c0-1.78,1.44-3.22,3.22-3.22Z"/>
      <path class="st2" d="M99.83,0s-1.63,2.78-2.05,3.9c-.21.54-1.33,1.75-.7,3.27.24.58,1.62,1.6,2.25,1.62s1.78-.62,2.13-1.11c.38-.54.92-1.86.79-2.51s-1.09-1.6-1.46-2.13c-.96-1.4-.96-3.05-.96-3.05Z"/>
    </g>
    <g>
      <path class="st13" d="M113.6,9.5h0c1.78,0,3.22,1.44,3.22,3.22v22.24c0,.44-.36.8-.8.8h-4.83c-.44,0-.8-.36-.8-.8V12.72c0-1.78,1.44-3.22,3.22-3.22Z"/>
      <path class="st7" d="M113.86.7s-1.63,2.78-2.05,3.9c-.21.54-1.33,1.75-.7,3.27.24.58,1.62,1.6,2.25,1.62s1.78-.62,2.13-1.11c.38-.54.92-1.86.79-2.51s-1.09-1.6-1.46-2.13c-.96-1.4-.96-3.05-.96-3.05Z"/>
    </g>
    <g>
      <path class="st13" d="M127.76,9.5h0c1.78,0,3.22,1.44,3.22,3.22v22.24c0,.44-.36.8-.8.8h-4.83c-.44,0-.8-.36-.8-.8V12.72c0-1.78,1.44-3.22,3.22-3.22Z"/>
      <path class="st6" d="M128.01.7s-1.63,2.78-2.05,3.9c-.21.54-1.33,1.75-.7,3.27.24.58,1.62,1.6,2.25,1.62s1.78-.62,2.13-1.11c.38-.54.92-1.86.79-2.51s-1.09-1.6-1.46-2.13c-.96-1.4-.96-3.05-.96-3.05Z"/>
    </g>
    <g>
      <path class="st13" d="M139.25,11.46h0c1.78,0,3.22,1.44,3.22,3.22v22.24c0,.44-.36.8-.8.8h-4.83c-.44,0-.8-.36-.8-.8V14.68c0-1.78,1.44-3.22,3.22-3.22Z"/>
      <path class="st17" d="M139.5,2.67s-1.63,2.78-2.05,3.9c-.21.54-1.33,1.75-.7,3.27.24.58,1.62,1.6,2.25,1.62s1.78-.62,2.13-1.11c.38-.54.92-1.86.79-2.51s-1.09-1.6-1.46-2.13c-.96-1.4-.96-3.05-.96-3.05Z"/>
    </g>
    <g>
      <path class="st13" d="M151.95,13.9h0c1.78,0,3.22,1.44,3.22,3.22v22.24c0,.44-.36.8-.8.8h-4.83c-.44,0-.8-.36-.8-.8v-22.24c0-1.78,1.44-3.22,3.22-3.22Z"/>
      <path class="st9" d="M152.2,5.1s-1.63,2.78-2.05,3.9c-.21.54-1.33,1.75-.7,3.27.24.58,1.62,1.6,2.25,1.62s1.78-.62,2.13-1.11c.38-.54.92-1.86.79-2.51s-1.09-1.6-1.46-2.13c-.96-1.4-.96-3.05-.96-3.05Z"/>
    </g>
    <g>
      <path class="st13" d="M85.55,8.79h0c1.78,0,3.22,1.44,3.22,3.22v22.24c0,.44-.36.8-.8.8h-4.83c-.44,0-.8-.36-.8-.8V12.01c0-1.78,1.44-3.22,3.22-3.22Z"/>
      <path class="st14" d="M85.8,0s-1.63,2.78-2.05,3.9c-.21.54-1.33,1.75-.7,3.27.24.58,1.62,1.6,2.25,1.62s1.78-.62,2.13-1.11c.38-.54.92-1.86.79-2.51s-1.09-1.6-1.46-2.13c-.96-1.4-.96-3.05-.96-3.05Z"/>
    </g>
    <g>
      <path class="st13" d="M71.52,12h0c1.78,0,3.22,1.44,3.22,3.22v22.24c0,.44-.36.8-.8.8h-4.83c-.44,0-.8-.36-.8-.8V15.22c0-1.78,1.44-3.22,3.22-3.22Z"/>
      <path class="st12" d="M71.77,3.21s-1.63,2.78-2.05,3.9c-.21.54-1.33,1.75-.7,3.27.24.58,1.62,1.6,2.25,1.62s1.78-.62,2.13-1.11c.38-.54.92-1.86.79-2.51s-1.09-1.6-1.46-2.13c-.96-1.4-.96-3.05-.96-3.05Z"/>
    </g>
    <g>
      <path class="st13" d="M57.3,13.78h0c1.78,0,3.22,1.44,3.22,3.22v22.24c0,.44-.36.8-.8.8h-4.83c-.44,0-.8-.36-.8-.8v-22.24c0-1.78,1.44-3.22,3.22-3.22Z"/>
      <path class="st5" d="M57.56,4.99s-1.63,2.78-2.05,3.9c-.21.54-1.33,1.75-.7,3.27.24.58,1.62,1.6,2.25,1.62s1.78-.62,2.13-1.11c.38-.54.92-1.86.79-2.51s-1.09-1.6-1.46-2.13c-.96-1.4-.96-3.05-.96-3.05Z"/>
    </g>
    <g>
      <path class="st13" d="M46.39,19h0c1.78,0,3.22,1.44,3.22,3.22v22.24c0,.44-.36.8-.8.8h-4.83c-.44,0-.8-.36-.8-.8v-22.24c0-1.78,1.44-3.22,3.22-3.22Z"/>
      <path class="st8" d="M46.64,10.21s-1.63,2.78-2.05,3.9c-.21.54-1.33,1.75-.7,3.27.24.58,1.62,1.6,2.25,1.62s1.78-.62,2.13-1.11c.38-.54.92-1.86.79-2.51s-1.09-1.6-1.46-2.13c-.96-1.4-.96-3.05-.96-3.05Z"/>
    </g>
    <g>
      <path class="st13" d="M124.02,28.43h0c1.78,0,3.22,1.44,3.22,3.22v22.24c0,.44-.36.8-.8.8h-4.83c-.44,0-.8-.36-.8-.8v-22.24c0-1.78,1.44-3.22,3.22-3.22Z"/>
      <path class="st11" d="M124.27,19.64s-1.63,2.78-2.05,3.9c-.21.54-1.33,1.75-.7,3.27.24.58,1.62,1.6,2.25,1.62s1.78-.62,2.13-1.11c.38-.54.92-1.86.79-2.51s-1.09-1.6-1.46-2.13c-.96-1.4-.96-3.05-.96-3.05Z"/>
    </g>
    <g>
      <path class="st13" d="M54.09,24.04h0c1.78,0,3.22,1.44,3.22,3.22v22.24c0,.44-.36.8-.8.8h-4.83c-.44,0-.8-.36-.8-.8v-22.24c0-1.78,1.44-3.22,3.22-3.22Z"/>
      <path class="st15" d="M54.34,15.24s-1.63,2.78-2.05,3.9c-.21.54-1.33,1.75-.7,3.27.24.58,1.62,1.6,2.25,1.62s1.78-.62,2.13-1.11c.38-.54.92-1.86.79-2.51s-1.09-1.6-1.46-2.13c-.96-1.4-.96-3.05-.96-3.05Z"/>
    </g>
    <g>
      <path class="st13" d="M160.32,26.32h0c1.78,0,3.22,1.44,3.22,3.22v22.24c0,.44-.36.8-.8.8h-4.83c-.44,0-.8-.36-.8-.8v-22.24c0-1.78,1.44-3.22,3.22-3.22Z"/>
      <path class="st1" d="M160.57,17.53s-1.63,2.78-2.05,3.9c-.21.54-1.33,1.75-.7,3.27.24.58,1.62,1.6,2.25,1.62s1.78-.62,2.13-1.11c.38-.54.92-1.86.79-2.51s-1.09-1.6-1.46-2.13c-.96-1.4-.96-3.05-.96-3.05Z"/>
    </g>
    <g>
      <path class="st13" d="M146.28,27.7h0c1.78,0,3.22,1.44,3.22,3.22v22.24c0,.44-.36.8-.8.8h-4.83c-.44,0-.8-.36-.8-.8v-22.24c0-1.78,1.44-3.22,3.22-3.22Z"/>
      <path class="st22" d="M146.53,18.91s-1.63,2.78-2.05,3.9c-.21.54-1.33,1.75-.7,3.27.24.58,1.62,1.6,2.25,1.62s1.78-.62,2.13-1.11c.38-.54.92-1.86.79-2.51s-1.09-1.6-1.46-2.13c-.96-1.4-.96-3.05-.96-3.05Z"/>
    </g>
    <g>
      <path class="st13" d="M135.46,27.8h0c1.78,0,3.22,1.44,3.22,3.22v22.24c0,.44-.36.8-.8.8h-4.83c-.44,0-.8-.36-.8-.8v-22.24c0-1.78,1.44-3.22,3.22-3.22Z"/>
      <path class="st20" d="M135.72,19s-1.63,2.78-2.05,3.9c-.21.54-1.33,1.75-.7,3.27.24.58,1.62,1.6,2.25,1.62s1.78-.62,2.13-1.11c.38-.54.92-1.86.79-2.51s-1.09-1.6-1.46-2.13c-.96-1.4-.96-3.05-.96-3.05Z"/>
    </g>
    <g>
      <path class="st13" d="M99.98,28.99h0c1.78,0,3.22,1.44,3.22,3.22v22.24c0,.44-.36.8-.8.8h-4.83c-.44,0-.8-.36-.8-.8v-22.24c0-1.78,1.44-3.22,3.22-3.22Z"/>
      <path class="st4" d="M100.23,20.19s-1.63,2.78-2.05,3.9c-.21.54-1.33,1.75-.7,3.27.24.58,1.62,1.6,2.25,1.62s1.78-.62,2.13-1.11c.38-.54.92-1.86.79-2.51s-1.09-1.6-1.46-2.13c-.96-1.4-.96-3.05-.96-3.05Z"/>
    </g>
    <g>
      <path class="st13" d="M111.19,28.99h0c1.78,0,3.22,1.44,3.22,3.22v22.24c0,.44-.36.8-.8.8h-4.83c-.44,0-.8-.36-.8-.8v-22.24c0-1.78,1.44-3.22,3.22-3.22Z"/>
      <path class="st3" d="M111.44,20.19s-1.63,2.78-2.05,3.9c-.21.54-1.33,1.75-.7,3.27.24.58,1.62,1.6,2.25,1.62s1.78-.62,2.13-1.11c.38-.54.92-1.86.79-2.51s-1.09-1.6-1.46-2.13c-.96-1.4-.96-3.05-.96-3.05Z"/>
    </g>
    <g>
      <path class="st13" d="M88.77,28.43h0c1.78,0,3.22,1.44,3.22,3.22v22.24c0,.44-.36.8-.8.8h-4.83c-.44,0-.8-.36-.8-.8v-22.24c0-1.78,1.44-3.22,3.22-3.22Z"/>
      <path class="st18" d="M89.02,19.64s-1.63,2.78-2.05,3.9c-.21.54-1.33,1.75-.7,3.27.24.58,1.62,1.6,2.25,1.62s1.78-.62,2.13-1.11c.38-.54.92-1.86.79-2.51s-1.09-1.6-1.46-2.13c-.96-1.4-.96-3.05-.96-3.05Z"/>
    </g>
    <g>
      <path class="st13" d="M76.44,28.99h0c1.78,0,3.22,1.44,3.22,3.22v22.24c0,.44-.36.8-.8.8h-4.83c-.44,0-.8-.36-.8-.8v-22.24c0-1.78,1.44-3.22,3.22-3.22Z"/>
      <path class="st10" d="M76.69,20.19s-1.63,2.78-2.05,3.9c-.21.54-1.33,1.75-.7,3.27.24.58,1.62,1.6,2.25,1.62s1.78-.62,2.13-1.11c.38-.54.92-1.86.79-2.51s-1.09-1.6-1.46-2.13c-.96-1.4-.96-3.05-.96-3.05Z"/>
    </g>
    <g>
      <path class="st13" d="M64.41,27.03h0c1.78,0,3.22,1.44,3.22,3.22v22.24c0,.44-.36.8-.8.8h-4.83c-.44,0-.8-.36-.8-.8v-22.24c0-1.78,1.44-3.22,3.22-3.22Z"/>
      <path class="st16" d="M64.67,18.23s-1.63,2.78-2.05,3.9c-.21.54-1.33,1.75-.7,3.27.24.58,1.62,1.6,2.25,1.62s1.78-.62,2.13-1.11c.38-.54.92-1.86.79-2.51s-1.09-1.6-1.46-2.13c-.96-1.4-.96-3.05-.96-3.05Z"/>
    </g>
  </g>
</svg>